<svg width="42" height="42" viewBox="0 0 42 42" fill="none" xmlns="http://www.w3.org/2000/svg">
<path d="M4.07036 18.9344C4.52854 15.1505 6.24169 11.6293 8.93612 8.93341C11.6305 6.2375 15.1508 4.52241 18.9344 4.06214C19.024 4.05144 19.1149 4.05934 19.2013 4.08533C19.2877 4.11133 19.3678 4.15486 19.4366 4.21322C19.5054 4.27157 19.5615 4.34349 19.6013 4.42448C19.641 4.50547 19.6637 4.5938 19.6678 4.68394C19.7489 6.6725 19.4172 8.65632 18.6935 10.5103C17.9699 12.3643 16.87 14.0483 15.4631 15.456C14.0563 16.8638 12.373 17.9648 10.5195 18.6897C8.66601 19.4146 6.68242 19.7476 4.6938 19.6678C4.60352 19.6639 4.51501 19.6414 4.43383 19.6017C4.35264 19.562 4.28053 19.506 4.222 19.4372C4.16347 19.3683 4.11979 19.2881 4.0937 19.2016C4.06761 19.1151 4.05966 19.0241 4.07036 18.9344ZM37.2996 22.3305C37.1158 22.3305 36.9337 22.319 36.75 22.319C34.8066 22.3165 32.8828 22.7071 31.0943 23.4673C29.3057 24.2275 27.6894 25.3416 26.3426 26.7425C24.9957 28.1435 23.9461 29.8024 23.2569 31.6194C22.5677 33.4365 22.2532 35.3742 22.3322 37.316C22.3363 37.4061 22.3589 37.4944 22.3987 37.5754C22.4385 37.6564 22.4945 37.7283 22.5633 37.7867C22.6322 37.845 22.7123 37.8886 22.7987 37.9146C22.8851 37.9406 22.9759 37.9485 23.0655 37.9378C26.8494 37.4774 30.3698 35.7621 33.0643 33.0659C35.7587 30.3696 37.4717 26.8481 37.9296 23.0639C37.9403 22.9736 37.9322 22.8821 37.9057 22.7952C37.8792 22.7082 37.8349 22.6277 37.7757 22.5588C37.7165 22.4898 37.6436 22.4339 37.5616 22.3946C37.4797 22.3553 37.3904 22.3335 37.2996 22.3305ZM24.6848 24.6848C26.2656 23.0955 28.1459 21.8355 30.2169 20.9777C32.2879 20.1199 34.5084 19.6814 36.75 19.6875C36.914 19.6875 37.0879 19.6875 37.2569 19.6875C37.351 19.6908 37.4447 19.6739 37.5317 19.6379C37.6187 19.6018 37.6969 19.5475 37.761 19.4785C37.8251 19.4096 37.8737 19.3277 37.9033 19.2383C37.933 19.1489 37.943 19.0543 37.9329 18.9607C37.4805 15.1629 35.7643 11.6275 33.06 8.92297C30.3557 6.21841 26.8206 4.50177 23.0229 4.04901C22.9293 4.03883 22.8346 4.04891 22.7452 4.07856C22.6558 4.10822 22.5739 4.15675 22.505 4.22087C22.436 4.28499 22.3817 4.36319 22.3456 4.45017C22.3096 4.53715 22.2927 4.63086 22.2961 4.72495C22.3707 7.05159 21.9671 9.36879 21.1104 11.5332C20.2536 13.6977 18.9619 15.6633 17.3151 17.3085C15.7349 18.899 13.8548 20.1602 11.7838 21.0191C9.71282 21.8781 7.49202 22.3177 5.24997 22.3125C5.08591 22.3125 4.912 22.3125 4.74302 22.3125C4.64893 22.3091 4.55521 22.326 4.46823 22.362C4.38126 22.3981 4.30305 22.4524 4.23893 22.5214C4.17482 22.5903 4.12628 22.6722 4.09663 22.7616C4.06698 22.851 4.0569 22.9456 4.06708 23.0392C4.51942 26.837 6.23567 30.3724 8.93994 33.0769C11.6442 35.7815 15.1794 37.4981 18.9771 37.9509C19.0707 37.9611 19.1654 37.951 19.2547 37.9213C19.3441 37.8917 19.426 37.8432 19.495 37.779C19.5639 37.7149 19.6183 37.6367 19.6543 37.5497C19.6903 37.4628 19.7073 37.369 19.7039 37.275C19.6284 34.9472 20.0315 32.6288 20.8882 30.4631C21.745 28.2975 23.0372 26.3308 24.6848 24.6848Z" fill="#C3FF00"/>
</svg>
